<?xml version="1.0" encoding="UTF-8"?>
<svg width="75px" height="75px" viewBox="0 0 75 75" version="1.1" xmlns="http://www.w3.org/2000/svg" xmlns:xlink="http://www.w3.org/1999/xlink">
    <!-- Generator: Sketch 53.2 (72643) - https://sketchapp.com -->
    <title>方案</title>
    <desc>Created with Sketch.</desc>
    <g id="Style" stroke="none" stroke-width="1" fill="none" fill-rule="evenodd">
        <g id="北京建行项目" transform="translate(-773.000000, -86.000000)" fill-rule="nonzero">
            <g id="方案" transform="translate(773.000000, 86.000000)">
                <g id="分组" transform="translate(10.000000, 11.000000)" fill="#558EEA">
                    <path d="M54.2871094,11.2021484 C54.2871094,5.48925781 49.6533203,0.85546875 43.9404297,0.85546875 L13.5541992,0.85546875 C9.33300781,0.85546875 6.01318359,4.45458984 6.34960938,8.65673828 L9.03466797,38.6875 L0.776367188,38.6875 L0.712890625,42.1152344 C0.712890625,47.4853516 4.92773438,51.8652344 10.234375,52.1318359 L10.234375,52.1445312 L37.1674805,52.1445312 C43.4008789,52.1445312 48.4472656,47.0917969 48.4472656,40.8647461 L45.5146484,14.8203125 L54.2871094,14.8203125 L54.2871094,11.2021484 Z M5.89257812,46.9648438 C4.60400391,45.6762695 3.89306641,43.9624023 3.88671875,42.140625 L3.89306641,41.8613281 L9.31396484,41.8613281 L9.94238281,48.9262695 C8.41894531,48.7485352 7.00341797,48.0693359 5.89257813,46.9648438 L5.89257812,46.9648438 Z M45.2734375,41.0297852 C45.2290039,43.137207 44.3911133,45.1049805 42.8994141,46.5966797 C41.3696289,48.1264648 39.3320312,48.9707031 37.1674805,48.9707031 L13.1352539,48.9707031 L9.51074219,8.39013672 C9.421875,7.25390625 9.80273437,6.16845703 10.5771484,5.33056641 C11.3515625,4.49267578 12.4116211,4.02929688 13.5541992,4.02929688 L14.7602539,4.02929688 C16.2456055,5.69873047 17.1533203,7.90136719 17.1533203,10.3134766 C17.1533203,11.9448242 16.7407227,13.480957 16.0107422,14.8203125 L42.3154297,14.8203125 L45.2734375,41.0297852 Z M51.1132812,11.6464844 L20.2573242,11.6464844 C20.3017578,11.2021484 20.3271484,10.7578125 20.3271484,10.3134766 C20.3271484,8.02832031 19.7304688,5.8828125 18.6767578,4.02929688 L43.9404297,4.02929688 C45.8574219,4.02929688 47.6601562,4.77832031 49.012207,6.13037109 C50.3642578,7.48242187 51.1132812,9.28515625 51.1132812,11.2021484 L51.1132812,11.6464844 Z M37.1801758,26.6904297 L18.3276367,26.6904297 L18.3276367,23.5166016 L37.1801758,23.5166016 L37.1801758,26.6904297 Z M37.1801758,34.5107422 L18.3276367,34.5107422 L18.3276367,31.3369141 L37.1801758,31.3369141 L37.1801758,34.5107422 Z" id="形状"></path>
                </g>
                <rect fill="#000000" opacity="0" x="0" y="0" width="75" height="75"></rect>
            </g>
        </g>
    </g>
</svg>